<svg width="231" height="28" viewBox="0 0 231 28" fill="none" xmlns="http://www.w3.org/2000/svg">
<path d="M6.85091 22.868C5.48402 22.868 4.29716 22.6552 3.2904 22.2295C2.29182 21.7957 1.51015 21.1777 0.945372 20.3756C0.380603 19.5735 0.0654787 18.6199 0 17.5149H2.77474C2.83204 18.1779 3.04485 18.7304 3.41317 19.1724C3.78969 19.6062 4.2767 19.9295 4.87421 20.1424C5.47173 20.3552 6.12652 20.4616 6.83863 20.4616C7.61622 20.4616 8.31193 20.3388 8.9258 20.0933C9.53972 19.8477 10.0186 19.5039 10.3623 19.0619C10.7143 18.6117 10.8902 18.0879 10.8902 17.4904C10.8902 16.9502 10.7347 16.5082 10.4237 16.1644C10.1208 15.8206 9.70751 15.5383 9.18364 15.3172C8.65984 15.0881 8.07048 14.8875 7.41569 14.7157L5.26709 14.1264C3.79378 13.7334 2.6315 13.1482 1.78025 12.3706C0.929006 11.5849 0.503382 10.5577 0.503382 9.28894C0.503382 8.23304 0.785767 7.31224 1.35054 6.52647C1.92349 5.7407 2.69698 5.13095 3.67101 4.69715C4.65322 4.25512 5.7541 4.03413 6.97366 4.03413C8.2178 4.03413 9.31051 4.25512 10.2518 4.69715C11.2013 5.13095 11.9502 5.72842 12.4986 6.48967C13.0552 7.24269 13.3457 8.10618 13.3703 9.08024H10.6938C10.5956 8.23716 10.2027 7.58237 9.51515 7.11582C8.83579 6.64928 7.96819 6.41601 6.91229 6.41601C6.17561 6.41601 5.529 6.53464 4.97244 6.77203C4.42403 7.00124 3.99841 7.32041 3.69556 7.72969C3.4009 8.13892 3.25357 8.60958 3.25357 9.14162C3.25357 9.71457 3.42955 10.1811 3.7815 10.5413C4.14164 10.9014 4.57546 11.1879 5.08291 11.4007C5.5986 11.6053 6.09378 11.7731 6.56849 11.9041L8.34879 12.3829C8.92991 12.5302 9.52744 12.7267 10.1413 12.9722C10.7552 13.2178 11.3241 13.5411 11.8479 13.9422C12.3799 14.3351 12.8055 14.8262 13.1248 15.4155C13.4522 15.9966 13.6159 16.7005 13.6159 17.5272C13.6159 18.5504 13.3499 19.4671 12.8178 20.2774C12.2858 21.0796 11.5164 21.7139 10.5096 22.1804C9.50286 22.6388 8.2833 22.868 6.85091 22.868ZM23.5922 16.9011V8.84697H26.2441V22.5733H23.6413V20.1914H23.4939C23.1665 20.92 22.6591 21.5297 21.9715 22.0208C21.284 22.5119 20.4246 22.7534 19.3932 22.7452C18.5092 22.7452 17.7276 22.5529 17.0482 22.1682C16.377 21.7834 15.8491 21.2064 15.4644 20.437C15.0879 19.6676 14.8996 18.714 14.8996 17.5764V8.84697H17.5516V17.2694C17.5516 18.1943 17.8135 18.9351 18.3373 19.4916C18.8612 20.0482 19.5365 20.3224 20.3631 20.3143C20.8624 20.3143 21.3577 20.1914 21.8487 19.9459C22.348 19.7004 22.7614 19.3238 23.0888 18.8164C23.4244 18.3089 23.5922 17.6705 23.5922 16.9011ZM28.0435 22.5733V8.84697H30.6955V22.5733H28.0435ZM29.3818 6.73523C28.9153 6.73523 28.5183 6.57967 28.1909 6.26868C27.8635 5.95763 27.6997 5.58521 27.6997 5.15141C27.6997 4.70938 27.8635 4.33289 28.1909 4.02184C28.5183 3.71079 28.9153 3.5553 29.3818 3.5553C29.8402 3.5553 30.2331 3.71079 30.5605 4.02184C30.896 4.33289 31.0639 4.70938 31.0639 5.15141C31.0639 5.58521 30.896 5.95763 30.5605 6.26868C30.2331 6.57967 29.8402 6.73523 29.3818 6.73523ZM45.2705 22.8189C43.6171 22.8189 42.1643 22.4383 40.912 21.677C39.6678 20.9158 38.6938 19.8354 37.9899 18.4358C37.2942 17.0279 36.9463 15.3623 36.9463 13.4388C36.9463 11.4907 37.2982 9.81686 38.0022 8.41723C38.7143 7.00942 39.6883 5.92894 40.9242 5.17592C42.1601 4.41473 43.568 4.03413 45.1477 4.03413C46.13 4.03413 47.0466 4.18146 47.8979 4.4761C48.7573 4.76258 49.5185 5.17592 50.1815 5.71619C50.8527 6.25639 51.4052 6.89484 51.839 7.63146C52.281 8.35996 52.5798 9.17025 52.7353 10.0624H49.9114C49.7396 9.51404 49.5104 9.02704 49.2239 8.60141C48.9374 8.16761 48.5937 7.79924 48.1926 7.49642C47.7915 7.18537 47.3372 6.9521 46.8298 6.7966C46.3305 6.63288 45.7739 6.55104 45.16 6.55104C44.1287 6.55104 43.1997 6.81706 42.373 7.3491C41.5463 7.8729 40.8915 8.64644 40.4085 9.66954C39.9257 10.6927 39.6842 11.945 39.6842 13.4265C39.6842 14.908 39.9257 16.1603 40.4085 17.1835C40.8915 18.2066 41.5545 18.9842 42.3975 19.5162C43.2406 20.0401 44.1983 20.302 45.2705 20.302C46.2609 20.302 47.1244 20.1014 47.8611 19.7004C48.5977 19.2911 49.1707 18.7181 49.58 17.9815C49.9892 17.2448 50.1938 16.3731 50.1938 15.3664L50.9182 15.5014H45.6879V13.2178H52.8826V15.3049C52.8826 16.8438 52.5553 18.1738 51.9004 19.2952C51.2538 20.4165 50.3534 21.2841 49.1994 21.8981C48.0534 22.5119 46.7438 22.8189 45.2705 22.8189ZM54.3628 22.5733V8.84697H56.9287V11.0447H57.0762C57.3299 10.308 57.7717 9.72686 58.402 9.30123C59.0403 8.86743 59.7609 8.6505 60.5633 8.6505C60.7267 8.6505 60.9193 8.65867 61.1399 8.67507C61.369 8.68324 61.5536 8.69553 61.6925 8.71187V11.2656C61.5862 11.2329 61.3936 11.2002 61.1153 11.1674C60.8456 11.1347 60.5713 11.1183 60.293 11.1183C59.6626 11.1183 59.098 11.2534 58.5986 11.5235C58.1077 11.7854 57.7185 12.1496 57.4322 12.6162C57.1539 13.0746 57.015 13.6065 57.015 14.2122V22.5733H54.3628ZM67.4946 22.8557C66.2094 22.8557 65.0842 22.561 64.1184 21.9717C63.1606 21.3824 62.4154 20.5557 61.8834 19.4916C61.3599 18.4276 61.0976 17.1916 61.0976 15.7838C61.0976 14.3596 61.3599 13.1155 61.8834 12.0514C62.4154 10.9792 63.1606 10.1484 64.1184 9.55907C65.0842 8.96972 66.2094 8.67507 67.4946 8.67507C68.7878 8.67507 69.913 8.96972 70.8708 9.55907C71.8286 10.1484 72.5732 10.9792 73.1053 12.0514C73.6373 13.1155 73.9036 14.3596 73.9036 15.7838C73.9036 17.1916 73.6373 18.4276 73.1053 19.4916C72.5732 20.5557 71.8286 21.3824 70.8708 21.9717C69.913 22.561 68.7878 22.8557 67.4946 22.8557ZM67.4946 20.6089C68.3375 20.6089 69.033 20.3879 69.5816 19.9459C70.1302 19.5039 70.5354 18.9187 70.7971 18.1902C71.0674 17.4535 71.2023 16.6514 71.2023 15.7838C71.2023 14.8998 71.0674 14.0895 70.7971 13.3528C70.5354 12.6162 70.1302 12.0268 69.5816 11.5849C69.033 11.1428 68.3375 10.9219 67.4946 10.9219C66.6597 10.9219 65.9682 11.1428 65.4196 11.5849C64.8796 12.0268 64.4744 12.6162 64.2041 13.3528C63.9338 14.0895 63.7989 14.8998 63.7989 15.7838C63.7989 16.6514 63.9338 17.4535 64.2041 18.1902C64.4744 18.9187 64.8796 19.5039 65.4196 19.9459C65.9682 20.3879 66.6597 20.6089 67.4946 20.6089ZM83.7694 16.9011V8.84697H86.421V22.5733H83.8186V20.1914H83.6711C83.3437 20.92 82.8362 21.5297 82.1487 22.0208C81.4613 22.5119 80.6018 22.7534 79.5703 22.7452C78.6862 22.7452 77.9044 22.5529 77.225 22.1682C76.5541 21.7834 76.026 21.2064 75.6414 20.437C75.2648 19.6676 75.0768 18.714 75.0768 17.5764V8.84697H77.7284V17.2694C77.7284 18.1943 77.9907 18.9351 78.5142 19.4916C79.0382 20.0482 79.7137 20.3224 80.54 20.3143C81.0395 20.3143 81.5344 20.1914 82.0259 19.9459C82.5248 19.7004 82.9385 19.3238 83.2659 18.8164C83.6014 18.3089 83.7694 17.6705 83.7694 16.9011ZM88.2206 27.7054V8.84697H90.799V11.0815H91.0196C91.1836 10.795 91.4088 10.4635 91.6951 10.087C91.99 9.71046 92.3991 9.38306 92.9226 9.10476C93.4466 8.81828 94.1301 8.67507 94.973 8.67507C96.0782 8.67507 97.0606 8.95338 97.9201 9.50993C98.7876 10.0665 99.471 10.8728 99.9705 11.9286C100.469 12.9845 100.719 14.2573 100.719 15.747C100.719 17.2203 100.473 18.489 99.9825 19.553C99.4916 20.6089 98.8121 21.4233 97.9446 21.9963C97.0852 22.561 96.0988 22.8435 94.9856 22.8435C94.1587 22.8435 93.4792 22.7043 92.9472 22.426C92.4237 22.1395 92.01 21.808 91.7077 21.4315C91.4128 21.055 91.1836 20.7235 91.0196 20.437H90.8727V27.7054H88.2206ZM94.4084 20.572C95.2022 20.572 95.8656 20.3593 96.3977 19.9337C96.9297 19.508 97.3303 18.931 97.6006 18.2025C97.8789 17.4658 98.0178 16.6392 98.0178 15.7224C98.0178 14.8139 97.8829 13.9994 97.6132 13.2792C97.3429 12.5589 96.9417 11.99 96.4097 11.5726C95.8777 11.1551 95.2108 10.9464 94.4084 10.9464C93.6306 10.9464 92.9763 11.147 92.4443 11.548C91.9122 11.9409 91.5071 12.4975 91.2288 13.2178C90.9585 13.9299 90.8236 14.7647 90.8236 15.7224C90.8236 16.6801 90.9625 17.5232 91.2408 18.2516C91.5191 18.9801 91.9242 19.5489 92.4563 19.9582C92.9963 20.3675 93.6472 20.572 94.4084 20.572ZM106.945 22.5733V4.27969H109.708V12.2356H118.818V4.27969H121.581V22.5733H118.818V14.6051H109.708V22.5733H106.945ZM129.334 22.8557C128.05 22.8557 126.924 22.561 125.958 21.9717C125 21.3824 124.256 20.5557 123.724 19.4916C123.199 18.4276 122.938 17.1916 122.938 15.7838C122.938 14.3596 123.199 13.1155 123.724 12.0514C124.256 10.9792 125 10.1484 125.958 9.55907C126.924 8.96972 128.05 8.67507 129.334 8.67507C130.627 8.67507 131.753 8.96972 132.71 9.55907C133.668 10.1484 134.413 10.9792 134.945 12.0514C135.477 13.1155 135.743 14.3596 135.743 15.7838C135.743 17.1916 135.477 18.4276 134.945 19.4916C134.413 20.5557 133.668 21.3824 132.71 21.9717C131.753 22.561 130.627 22.8557 129.334 22.8557ZM129.334 20.6089C130.178 20.6089 130.873 20.3879 131.422 19.9459C131.97 19.5039 132.375 18.9187 132.637 18.1902C132.907 17.4535 133.042 16.6514 133.042 15.7838C133.042 14.8998 132.907 14.0895 132.637 13.3528C132.375 12.6162 131.97 12.0268 131.422 11.5849C130.873 11.1428 130.178 10.9219 129.334 10.9219C128.499 10.9219 127.808 11.1428 127.259 11.5849C126.719 12.0268 126.314 12.6162 126.044 13.3528C125.774 14.0895 125.639 14.8998 125.639 15.7838C125.639 16.6514 125.774 17.4535 126.044 18.1902C126.314 18.9187 126.719 19.5039 127.259 19.9459C127.808 20.3879 128.499 20.6089 129.334 20.6089ZM139.569 4.27969V22.5733H136.916V4.27969H139.569ZM146.475 22.8435C145.362 22.8435 144.372 22.561 143.504 21.9963C142.637 21.4233 141.957 20.6089 141.466 19.553C140.975 18.489 140.729 17.2203 140.729 15.747C140.729 14.2573 140.979 12.9845 141.478 11.9286C141.978 10.8728 142.661 10.0665 143.529 9.50993C144.396 8.95338 145.379 8.67507 146.475 8.67507C147.335 8.67507 148.022 8.81828 148.538 9.10476C149.062 9.38306 149.467 9.71046 149.753 10.087C150.048 10.4635 150.273 10.795 150.429 11.0815H150.588V4.27969H153.24V22.5733H150.65V20.437H150.429C150.273 20.7235 150.044 21.055 149.741 21.4315C149.438 21.808 149.025 22.1395 148.501 22.426C147.986 22.7043 147.31 22.8435 146.475 22.8435ZM147.053 20.572C147.822 20.572 148.473 20.3675 149.005 19.9582C149.537 19.5489 149.938 18.9801 150.208 18.2516C150.486 17.5232 150.625 16.6801 150.625 15.7224C150.625 14.7647 150.49 13.9299 150.22 13.2178C149.95 12.4975 149.549 11.9409 149.017 11.548C148.485 11.147 147.83 10.9464 147.053 10.9464C146.25 10.9464 145.583 11.1551 145.051 11.5726C144.519 11.99 144.118 12.5589 143.848 13.2792C143.578 13.9994 143.443 14.8139 143.443 15.7224C143.443 16.6392 143.578 17.4658 143.848 18.2025C144.118 18.931 144.519 19.508 145.051 19.9337C145.591 20.3593 146.258 20.572 147.053 20.572ZM155.052 22.5733V8.84697H157.704V22.5733H155.052ZM156.39 6.73523C155.924 6.73523 155.527 6.57967 155.199 6.26868C154.872 5.95763 154.708 5.58521 154.708 5.15141C154.708 4.70938 154.872 4.33289 155.199 4.02184C155.527 3.71079 155.924 3.5553 156.39 3.5553C156.849 3.5553 157.242 3.71079 157.569 4.02184C157.905 4.33289 158.072 4.70938 158.072 5.15141C158.072 5.58521 157.905 5.95763 157.569 6.26868C157.242 6.57967 156.849 6.73523 156.39 6.73523ZM162.155 14.4333V22.5733H159.504V8.84697H162.082V11.106H162.266C162.577 10.3612 163.064 9.77189 163.727 9.33803C164.39 8.89606 165.241 8.67507 166.281 8.67507C167.214 8.67507 168.028 8.87148 168.724 9.26437C169.428 9.64908 169.972 10.2261 170.357 10.9955C170.75 11.7649 170.946 12.7185 170.946 13.8562V22.5733H168.294V14.1754C168.294 13.185 168.032 12.4074 167.508 11.8427C166.985 11.2698 166.273 10.9833 165.372 10.9833C164.758 10.9833 164.206 11.1224 163.715 11.4007C163.232 11.6708 162.851 12.0596 162.573 12.567C162.295 13.0746 162.155 13.6966 162.155 14.4333ZM178.467 28C176.83 28 175.541 27.6931 174.6 27.0792C173.658 26.4653 173.007 25.7368 172.647 24.8938L174.931 23.9484C175.094 24.2103 175.312 24.4887 175.582 24.7833C175.86 25.0779 176.232 25.3276 176.699 25.5322C177.165 25.7369 177.767 25.8391 178.504 25.8391C179.511 25.8391 180.346 25.5936 181.009 25.1025C181.671 24.6196 182.003 23.842 182.003 22.7698V20.081H181.819C181.671 20.3675 181.446 20.6907 181.143 21.0509C180.841 21.4028 180.427 21.7098 179.903 21.9717C179.379 22.2336 178.696 22.3646 177.853 22.3646C176.773 22.3646 175.798 22.1109 174.931 21.6034C174.071 21.0877 173.384 20.3347 172.869 19.3443C172.361 18.3457 172.107 17.118 172.107 15.661C172.107 14.2041 172.357 12.9559 172.856 11.9164C173.363 10.8686 174.051 10.0665 174.918 9.50993C175.786 8.95338 176.773 8.67507 177.877 8.67507C178.729 8.67507 179.416 8.81828 179.94 9.10476C180.473 9.38306 180.886 9.71046 181.18 10.087C181.475 10.4635 181.704 10.795 181.868 11.0815H182.064V8.84697H184.655V22.8803C184.655 24.0589 184.381 25.0247 183.832 25.7778C183.292 26.5308 182.555 27.0874 181.622 27.4475C180.689 27.8158 179.638 28 178.467 28ZM178.442 20.1424C179.596 20.1424 180.48 19.7454 181.094 18.9514C181.717 18.1493 182.027 17.0402 182.027 15.6242C182.027 14.6993 181.893 13.889 181.622 13.1932C181.352 12.4893 180.951 11.9409 180.419 11.548C179.887 11.147 179.228 10.9464 178.442 10.9464C177.64 10.9464 176.969 11.1551 176.429 11.5726C175.897 11.9818 175.496 12.5425 175.226 13.2546C174.956 13.9585 174.821 14.7484 174.821 15.6242C174.821 16.5163 174.956 17.3062 175.226 17.9938C175.496 18.6731 175.901 19.2011 176.441 19.5776C176.989 19.9541 177.656 20.1424 178.442 20.1424ZM196.718 12.211L194.3 12.6285C194.144 12.1701 193.853 11.7485 193.428 11.3639C193.01 10.9792 192.384 10.7868 191.549 10.7868C190.797 10.7868 190.166 10.9587 189.659 11.3024C189.159 11.6381 188.91 12.0678 188.91 12.5916C188.91 13.05 189.078 13.4224 189.413 13.7089C189.757 13.9954 190.301 14.2245 191.046 14.3964L193.244 14.8875C194.496 15.174 195.433 15.6242 196.055 16.2381C196.678 16.852 196.988 17.6377 196.988 18.5954C196.988 19.4221 196.751 20.1587 196.276 20.8053C195.802 21.4438 195.143 21.9472 194.3 22.3155C193.457 22.6756 192.482 22.8557 191.378 22.8557C189.839 22.8557 188.586 22.5242 187.62 21.8612C186.655 21.1983 186.061 20.2651 185.84 19.0619L188.406 18.6691C188.57 19.3402 188.902 19.8477 189.401 20.1914C189.909 20.5352 190.563 20.7071 191.365 20.7071C192.233 20.7071 192.929 20.523 193.452 20.1546C193.984 19.7863 194.251 19.3402 194.251 18.8164C194.251 17.9488 193.604 17.3635 192.31 17.0607L189.99 16.545C188.705 16.2503 187.756 15.7879 187.142 15.1576C186.536 14.5192 186.233 13.7171 186.233 12.7512C186.233 11.9409 186.458 11.2288 186.908 10.6149C187.367 10.001 187.993 9.52633 188.787 9.19071C189.589 8.84697 190.502 8.67507 191.525 8.67507C193.014 8.67507 194.181 8.99835 195.024 9.64502C195.875 10.2916 196.44 11.147 196.718 12.211Z" fill="black"/>
<path fill-rule="evenodd" clip-rule="evenodd" d="M218.993 0C218.993 0 206.992 6.0004 206.992 15.4296C206.992 22.0575 212.365 27.4304 218.993 27.4304C225.621 27.4304 230.994 22.0575 230.994 15.4296C230.994 6.0004 218.993 0 218.993 0ZM227.565 15.4296C227.565 20.1638 223.727 24.0016 218.993 24.0016V21.43C222.307 21.43 224.993 18.7435 224.993 15.4296H227.565Z" fill="black"/>
<path fill-rule="evenodd" clip-rule="evenodd" d="M218.993 0C218.993 0 206.992 6.0004 206.992 15.4296C206.992 22.0575 212.365 27.4304 218.993 27.4304C225.621 27.4304 230.994 22.0575 230.994 15.4296C230.994 6.0004 218.993 0 218.993 0ZM227.565 15.4296C227.565 20.1638 223.727 24.0016 218.993 24.0016V21.43C222.307 21.43 224.993 18.7435 224.993 15.4296H227.565Z" fill="black"/>
</svg>
