<svg width="110" height="20" viewBox="0 0 110 20" fill="none" xmlns="http://www.w3.org/2000/svg">
<path d="M109.453 3.00195H106.637C106.415 3.00195 106.234 3.18116 106.234 3.40201V18.6019C106.234 18.8228 106.415 19.002 106.637 19.002H109.453C109.675 19.002 109.856 18.8228 109.856 18.6019V3.40201C109.856 3.18116 109.675 3.00195 109.453 3.00195Z" fill="black"/>
<path d="M102.612 3.40201V4.17813C102.612 4.29807 102.584 4.39403 102.528 4.48646L94.057 18.6125C93.9101 18.8545 93.6489 19.0027 93.3651 19.0027H90.1297C89.8459 19.0027 89.5824 18.8545 89.4378 18.6125L80.9672 4.48646C80.9125 4.39261 80.8828 4.28679 80.8828 4.17813V3.40201C80.8828 3.18116 81.0629 3.00195 81.2851 3.00195H83.77C84.0838 3.00195 84.3173 3.15012 84.4622 3.39212L91.7494 15.544L99.0325 3.39212C99.1797 3.15012 99.4208 3.00195 99.7247 3.00195H102.21C102.432 3.00195 102.612 3.18116 102.612 3.40201Z" fill="black"/>
<path d="M69.808 3.00195C69.5242 3.00195 69.263 3.15012 69.1161 3.39212L60.6469 17.5182C60.5908 17.6099 60.5625 17.7178 60.5625 17.8265V18.6026C60.5625 18.8235 60.7426 19.0027 60.9648 19.0027H63.4492C63.733 19.0027 63.9942 18.8545 64.1411 18.6125L65.8332 15.7924H77.0215L78.7136 18.6125C78.8585 18.8545 79.122 19.0027 79.4058 19.0027H81.8901C82.1121 19.0027 82.2925 18.8235 82.2925 18.6026V17.8265C82.2925 17.7185 82.2619 17.6127 82.208 17.5182L73.7389 3.39212C73.5939 3.15012 73.3299 3.00195 73.0467 3.00195H69.808ZM67.756 12.5821L71.425 6.46204L75.0946 12.5821H67.756Z" fill="black"/>
<path d="M57.1389 3.00195H54.338C54.1158 3.00195 53.9357 3.18116 53.9357 3.40201V14.3544L42.7011 3.34837C42.6585 3.30676 42.6131 3.26865 42.5647 3.23408C42.3598 3.08381 42.1107 3.00195 41.8522 3.00195H38.6283C38.4061 3.00195 38.2266 3.18116 38.2266 3.40201V18.6026C38.2266 18.8235 38.4061 19.002 38.6283 19.002H41.4292C41.6514 19.002 41.8315 18.8235 41.8315 18.6026V7.65018L53.0667 18.6562C53.1093 18.6979 53.1547 18.736 53.2022 18.7705C53.4082 18.9201 53.6574 19.002 53.9156 19.002H57.1389C57.3611 19.002 57.5412 18.8235 57.5412 18.6026V3.40201C57.5412 3.18116 57.3611 3.00195 57.1389 3.00195Z" fill="black"/>
<path d="M30.1796 12.8158V19.3998C30.1796 19.7318 29.9101 19.9998 29.576 19.9998H25.5722C25.3227 19.9998 25.0813 19.9238 24.8781 19.7818L11.6292 10.5078C11.1604 10.1558 10.0599 10.2558 10.0599 11.3298V19.3998C10.0599 19.7318 9.79028 19.9998 9.45629 19.9998H0.603592C0.269605 19.9998 0 19.7318 0 19.3998V10.5998C0 10.2678 0.269605 9.99978 0.603592 9.99978H6.03592C7.29944 9.99978 8.0479 9.19177 8.0479 7.99978V0.99978C8.0479 0.66778 8.31751 0.39978 8.6515 0.39978H12.6473C12.937 0.39978 13.1462 0.47778 13.3515 0.62578L29.8375 12.1618C30.0872 12.3358 30.1796 12.5318 30.1796 12.8158Z" fill="black"/>
<path d="M30.1849 0.6V9.19601C30.1849 9.54801 29.8428 9.72801 29.551 9.52399L20.4711 3.16801C20.2538 3.01801 20.125 2.85 20.125 2.51V0.6C20.125 0.268 20.3946 0 20.7286 0H29.5812C29.9154 0 30.1849 0.268 30.1849 0.6Z" fill="black"/>
</svg>
