<svg width="86" height="24" viewBox="0 0 86 24" fill="none" xmlns="http://www.w3.org/2000/svg">
<g clip-path="url(#clip0_8633_26408)">
<path d="M25.0781 0H0.56996C0.418795 0 0.273826 0.0561879 0.166936 0.156204C0.0600485 0.256219 0 0.39187 0 0.533315V23.4657C0 23.6072 0.0600485 23.743 0.166936 23.843C0.273826 23.9429 0.418795 23.9991 0.56996 23.9991H25.0781C25.2294 23.9991 25.3742 23.9429 25.4813 23.843C25.5881 23.743 25.6482 23.6072 25.6482 23.4657V0.533315C25.6482 0.39187 25.5881 0.256219 25.4813 0.156204C25.3742 0.0561879 25.2294 0 25.0781 0ZM17.0988 15.4661C17.0988 15.6076 17.0387 15.7432 16.9318 15.8432C16.8249 15.9432 16.68 15.9994 16.5288 15.9994H9.11933C8.96818 15.9994 8.82321 15.9432 8.71632 15.8432C8.60943 15.7432 8.54938 15.6076 8.54938 15.4661V8.53303C8.54938 8.39159 8.60943 8.25593 8.71632 8.15592C8.82321 8.0559 8.96818 7.99971 9.11933 7.99971H16.5288C16.68 7.99971 16.8249 8.0559 16.9318 8.15592C17.0387 8.25593 17.0988 8.39159 17.0988 8.53303V15.4661Z" fill="black"/>
<path d="M76.3858 8.00049H68.9762C68.6616 8.00049 68.4062 8.23925 68.4062 8.5338V15.4669C68.4062 15.7614 68.6616 16.0002 68.9762 16.0002H76.3858C76.7006 16.0002 76.9557 15.7614 76.9557 15.4669V8.5338C76.9557 8.23925 76.7006 8.00049 76.3858 8.00049Z" fill="black"/>
<path d="M67.8387 0.000488281H60.4293C60.1145 0.000488281 59.8594 0.239262 59.8594 0.533802V7.46689C59.8594 7.76143 60.1145 8.00021 60.4293 8.00021H67.8387C68.1535 8.00021 68.4088 7.76143 68.4088 7.46689V0.533802C68.4088 0.239262 68.1535 0.000488281 67.8387 0.000488281Z" fill="black"/>
<path d="M84.9405 0.000488281H77.5309C77.2163 0.000488281 76.9609 0.239262 76.9609 0.533802V7.46689C76.9609 7.76143 77.2163 8.00021 77.5309 8.00021H84.9405C85.2553 8.00021 85.5104 7.76143 85.5104 7.46689V0.533802C85.5104 0.239262 85.2553 0.000488281 84.9405 0.000488281Z" fill="black"/>
<path d="M67.8387 16H60.4293C60.1145 16 59.8594 16.2388 59.8594 16.5333V23.4665C59.8594 23.7609 60.1145 23.9998 60.4293 23.9998H67.8387C68.1535 23.9998 68.4088 23.7609 68.4088 23.4665V16.5333C68.4088 16.2388 68.1535 16 67.8387 16Z" fill="black"/>
<path d="M84.9405 16H77.5309C77.2163 16 76.9609 16.2388 76.9609 16.5333V23.4665C76.9609 23.7609 77.2163 23.9998 77.5309 23.9998H84.9405C85.2553 23.9998 85.5104 23.7609 85.5104 23.4665V16.5333C85.5104 16.2388 85.2553 16 84.9405 16Z" fill="black"/>
<path d="M55.003 0.000488281H47.5936C47.2788 0.000488281 47.0234 0.239262 47.0234 0.533802V7.46689C47.0234 7.76143 47.2788 8.00021 47.5936 8.00021H55.003C55.3178 8.00021 55.5729 7.76143 55.5729 7.46689V0.533802C55.5729 0.239262 55.3178 0.000488281 55.003 0.000488281Z" fill="black"/>
<path d="M55.003 16H47.5936C47.2788 16 47.0234 16.2388 47.0234 16.5333V23.4665C47.0234 23.7609 47.2788 23.9998 47.5936 23.9998H55.003C55.3178 23.9998 55.5729 23.7609 55.5729 23.4665V16.5333C55.5729 16.2388 55.3178 16 55.003 16Z" fill="black"/>
<path d="M47.0208 8.52703C47.0208 8.38559 46.9606 8.24993 46.8538 8.14993C46.747 8.0499 46.602 7.99372 46.4509 7.99372H38.4713V0.533315C38.4713 0.39187 38.4112 0.256219 38.3044 0.156204C38.1975 0.0561879 38.0525 0 37.9014 0H30.492C30.3407 0 30.1959 0.0561879 30.0888 0.156204C29.982 0.256219 29.9219 0.39187 29.9219 0.533315V23.4538C29.9219 23.5953 29.982 23.7309 30.0888 23.8309C30.1959 23.931 30.3407 23.9871 30.492 23.9871H37.9014C38.0525 23.9871 38.1975 23.931 38.3044 23.8309C38.4112 23.7309 38.4713 23.5953 38.4713 23.4538V15.9934H46.4509C46.602 15.9934 46.747 15.9372 46.8538 15.8372C46.9606 15.7372 47.0208 15.6016 47.0208 15.4601V8.52703Z" fill="black"/>
</g>
<defs>
<clipPath id="clip0_8633_26408">
<rect width="85.509" height="24" fill="white"/>
</clipPath>
</defs>
</svg>
