<svg width="142" height="24" viewBox="0 0 142 24" fill="none" xmlns="http://www.w3.org/2000/svg">
<g clip-path="url(#clip0_8633_26420)">
<mask id="mask0_8633_26420" style="mask-type:luminance" maskUnits="userSpaceOnUse" x="0" y="-1" width="142" height="25">
<path d="M142 -0.000732422H0V23.9993H142V-0.000732422Z" fill="white"/>
</mask>
<g mask="url(#mask0_8633_26420)">
<path d="M20.4503 -0.000732422H3.49152C1.5637 -0.000732422 0 1.56677 0 3.49927V20.4993C0 22.4318 1.5637 23.9993 3.49152 23.9993H20.4503C22.3781 23.9993 23.9418 22.4318 23.9418 20.4993V3.49927C23.9418 1.56677 22.3781 -0.000732422 20.4503 -0.000732422ZM16.3428 16.9993H7.59904C6.63388 16.9993 6.03534 15.9493 6.52415 15.1168L10.916 7.61927C11.3998 6.79427 12.5894 6.79677 13.0682 7.62427L17.4202 15.1218C17.904 15.9543 17.303 16.9993 16.3428 16.9993Z" fill="black"/>
<path d="M64.2471 7.52905C60.3591 7.52905 58.1719 9.91905 58.1719 14.1591C58.1719 18.3991 60.3591 20.7841 64.2471 20.7841C67.1351 20.7841 69.2998 19.5516 69.9832 16.8316C70.038 16.6116 69.8685 16.3966 69.6465 16.3966H67.9207C67.7586 16.3966 67.6189 16.5066 67.584 16.6641C67.4369 17.2941 66.8159 18.8341 64.2471 18.8341C62.3692 18.8341 61.0274 17.6016 60.6583 15.4141C60.6234 15.2016 60.788 15.0066 61.0025 15.0066H69.9757C70.1677 15.0066 70.3224 14.8516 70.3224 14.6591V14.2791C70.3224 9.94405 68.1352 7.52905 64.2471 7.52905ZM67.5217 13.2066H61C60.7855 13.2066 60.6209 13.0141 60.6558 12.8041C61.0025 10.6941 62.2819 9.50655 64.2745 9.50655C66.2672 9.50655 67.5217 10.6941 67.8658 12.8041C67.9007 13.0166 67.7361 13.2066 67.5217 13.2066Z" fill="black"/>
<path d="M57.4148 7.84239H56.1029C54.9108 7.84239 53.811 8.47989 53.215 9.51489C53.0504 9.80489 52.6089 9.68489 52.6089 9.35239V8.17489C52.6089 7.98239 52.4543 7.82739 52.2623 7.82739H50.3544C50.1624 7.82739 50.0078 7.98239 50.0078 8.17489V20.1449C50.0078 20.3374 50.1624 20.4924 50.3544 20.4924H52.2623C52.4543 20.4924 52.6089 20.3374 52.6089 20.1449V12.6899C52.6089 11.2524 53.7711 10.0874 55.2026 10.0874H56.4945C56.6117 10.0874 56.7189 10.0224 56.7763 9.92239L57.6991 8.33239C57.8263 8.11489 57.6691 7.84489 57.4172 7.84489L57.4148 7.84239Z" fill="black"/>
<path d="M46.8541 7.82202H45.0185C44.8271 7.82202 44.6719 7.97761 44.6719 8.16952V20.1445C44.6719 20.3364 44.8271 20.492 45.0185 20.492H46.8541C47.0455 20.492 47.2007 20.3364 47.2007 20.1445V8.16952C47.2007 7.97761 47.0455 7.82202 46.8541 7.82202Z" fill="black"/>
<path d="M46.942 3.49194H44.9369C44.7344 3.49194 44.5703 3.65648 44.5703 3.85944V5.99694C44.5703 6.19991 44.7344 6.36444 44.9369 6.36444H46.942C47.1445 6.36444 47.3086 6.19991 47.3086 5.99694V3.85944C47.3086 3.65648 47.1445 3.49194 46.942 3.49194Z" fill="black"/>
<path d="M42.2646 3.492H31.2763C31.0843 3.492 30.9297 3.647 30.9297 3.8395V20.1395C30.9297 20.332 31.0843 20.487 31.2763 20.487H33.2042C33.3962 20.487 33.5508 20.332 33.5508 20.1395V12.667C33.5508 12.487 33.698 12.342 33.875 12.342L40.0051 12.332C40.1099 12.332 40.2071 12.287 40.272 12.2045L41.1623 10.6595C41.3494 10.432 41.1873 10.0895 40.8955 10.0895H35.5809C35.314 10.0895 35.0596 10.187 34.8576 10.367C34.6182 10.582 34.3015 10.8645 34.1543 10.997C33.9199 11.2045 33.5533 11.037 33.5533 10.7245V6.1995C33.5533 6.007 33.7079 5.852 33.9 5.852H41.3244C41.4416 5.852 41.5489 5.7895 41.6062 5.6895L42.5415 4.0495C42.716 3.822 42.5539 3.4895 42.2646 3.4895V3.492Z" fill="black"/>
<path d="M116.991 15.9841H115.173C115.014 15.9841 114.879 16.0916 114.839 16.2441C114.455 17.7641 113.323 18.6166 111.712 18.6166C109.427 18.6166 108.063 17.0316 108.063 14.1566C108.063 11.2816 109.4 9.69655 111.712 9.69655C114.023 9.69655 114.649 11.3291 114.817 11.9741C114.856 12.1241 114.996 12.2316 115.151 12.2316H116.984C117.203 12.2316 117.368 12.0291 117.328 11.8141C116.787 9.05655 114.762 7.52905 111.614 7.52905C107.701 7.52905 105.539 9.91655 105.539 14.1541C105.539 18.3916 107.704 20.7791 111.614 20.7791C114.769 20.7791 116.817 19.2041 117.335 16.3941C117.375 16.1791 117.208 15.9816 116.991 15.9816V15.9841Z" fill="black"/>
<path d="M124.656 13.707C124.528 13.5645 124.538 13.347 124.678 13.2195L130.01 8.33944C130.212 8.15694 130.083 7.82194 129.808 7.82194H127.526C127.441 7.82194 127.357 7.85444 127.292 7.91194L122.468 12.3295C122.306 12.4795 122.045 12.362 122.045 12.142V3.83694C122.045 3.64444 121.892 3.49194 121.7 3.49194H119.86C119.668 3.49194 119.516 3.64444 119.516 3.83694V20.147C119.516 20.3395 119.668 20.492 119.86 20.492H121.7C121.892 20.492 122.045 20.3395 122.045 20.147V14.877C122.045 14.642 122.334 14.532 122.488 14.707L127.509 20.377C127.574 20.4495 127.668 20.4945 127.766 20.4945H130.08C130.337 20.4945 130.472 20.1895 130.299 19.997L124.653 13.707H124.656Z" fill="black"/>
<path d="M137.137 13.0169C134.511 12.5269 133.905 12.1844 133.905 11.1369C133.905 10.0894 134.997 9.43192 136.362 9.43192C138.756 9.43192 139.192 10.8344 139.267 11.4694C139.287 11.6444 139.439 11.7719 139.611 11.7719H141.369C141.574 11.7719 141.733 11.5969 141.716 11.3944C141.521 8.96692 139.624 7.53442 136.362 7.53442C133.444 7.53442 131.428 8.94692 131.428 11.2394C131.428 13.1869 132.451 14.4544 136.386 15.1144C139.11 15.5544 139.471 16.0144 139.471 17.0894C139.471 18.2844 138.426 18.8919 136.726 18.8919C134.142 18.8944 133.723 17.3469 133.666 16.6569C133.653 16.4744 133.503 16.3344 133.319 16.3344H131.543C131.341 16.3344 131.179 16.5069 131.197 16.7094C131.394 19.5619 133.621 20.7919 136.673 20.7919C139.726 20.7919 141.995 19.4269 141.995 16.9444C141.995 14.8019 140.925 13.7544 137.135 13.0219L137.137 13.0169Z" fill="black"/>
<path d="M88.9947 3.49194H87.1592C86.9677 3.49194 86.8125 3.64752 86.8125 3.83944V20.142C86.8125 20.3339 86.9677 20.4895 87.1592 20.4895H88.9947C89.1862 20.4895 89.3414 20.3339 89.3414 20.142V3.83944C89.3414 3.64752 89.1862 3.49194 88.9947 3.49194Z" fill="black"/>
<path d="M97.7551 7.52905C93.8421 7.52905 91.5078 10.3791 91.5078 14.1541C91.5078 17.9291 93.8421 20.7791 97.7551 20.7791C101.668 20.7791 104.002 17.9291 104.002 14.1541C104.002 10.3791 101.668 7.52905 97.7551 7.52905ZM97.7551 18.7116C95.2512 18.7116 94.084 16.7866 94.084 14.1541C94.084 11.5216 95.2487 9.59655 97.7551 9.59655C100.262 9.59655 101.426 11.5216 101.426 14.1541C101.426 16.7866 100.262 18.7116 97.7551 18.7116Z" fill="black"/>
<path d="M79.4837 7.55091C77.7778 7.55341 76.4036 8.20091 75.5931 9.33091C75.456 9.51841 75.1592 9.4184 75.1592 9.1884V3.84091C75.1592 3.64841 75.0046 3.49341 74.8125 3.49341H72.9795C72.7874 3.49341 72.6328 3.64841 72.6328 3.84091V20.1409C72.6328 20.3334 72.7874 20.4884 72.9795 20.4884H74.7153C74.9073 20.4884 75.0619 20.3334 75.0619 20.1409V18.7759C75.0619 18.5484 75.3562 18.4709 75.4784 18.6609C76.2939 19.9484 77.6955 20.7584 79.4363 20.7584C82.8879 20.7584 85.0003 18.3209 85.0003 14.1559C85.0003 9.99091 82.863 7.55341 79.4837 7.55341V7.55091ZM78.7804 18.6634C76.5184 18.6634 75.1816 16.9334 75.1816 14.1559C75.1816 11.3784 76.5184 9.62341 78.7804 9.62341C81.0424 9.62341 82.429 11.3759 82.429 14.1559C82.429 16.9359 81.0673 18.6634 78.7804 18.6634Z" fill="black"/>
</g>
</g>
<defs>
<clipPath id="clip0_8633_26420">
<rect width="142" height="24" fill="white"/>
</clipPath>
</defs>
</svg>
