<svg width="125" height="22" viewBox="0 0 125 22" fill="none" xmlns="http://www.w3.org/2000/svg">
<g clip-path="url(#clip0_8633_26437)">
<mask id="mask0_8633_26437" style="mask-type:luminance" maskUnits="userSpaceOnUse" x="0" y="0" width="125" height="22">
<path d="M124.043 0.14624H0V21.8537H124.043V0.14624Z" fill="white"/>
</mask>
<g mask="url(#mask0_8633_26437)">
<path d="M111.112 13.9165C110.593 13.7712 109.561 13.4291 108.624 13.0719C107.86 12.7813 106.523 12.0972 106.368 11.9912C106.213 11.8853 106.21 11.8913 106.201 11.8581C106.195 11.8308 106.287 11.7279 106.419 11.5614C107.567 10.0993 109.065 7.79868 109.026 5.83408C108.988 3.86948 107.821 1.90489 105.67 1.36606C103.518 0.824209 102.208 1.22076 101.51 1.39331C100.809 1.56585 99.2154 2.14403 98.8662 2.30447C98.5172 2.46188 98.5561 2.60717 98.5561 2.87054C98.5561 3.53044 98.5828 17.8215 98.5561 18.2967C98.5292 18.772 98.8931 18.9294 99.1527 18.9809C99.4125 19.0323 101.021 18.9809 101.591 18.7962C102.161 18.6115 102.316 18.3996 102.342 18.0576C102.369 17.7155 102.369 14.8942 102.369 14.4977C102.369 14.2283 102.328 14.0588 102.357 14.0376C102.39 14.0103 102.447 14.0376 102.623 14.1889C102.784 14.3282 104.088 15.3877 105.586 16.3442C107.194 17.3735 107.893 17.7155 108.516 17.9274C109.059 18.1121 109.492 18.1787 109.76 17.8215C110.059 17.4249 111.124 15.4815 111.42 14.7641C111.679 14.1314 111.339 13.98 111.121 13.9195L111.112 13.9165ZM105.538 6.25788C105.511 6.92083 105.297 7.63522 104.542 8.63114C103.757 9.66641 102.253 10.9832 102.163 10.965C102.074 10.9469 102.056 10.8318 102.065 10.6684C102.074 10.5049 102.181 5.39213 102.181 5.16509C102.181 5.07428 102.295 4.98347 102.414 4.92899C102.533 4.87448 103.802 4.68984 104.539 4.87752C105.279 5.06218 105.565 5.58889 105.535 6.2609L105.538 6.25788Z" fill="black"/>
<path d="M111.722 4.91689C111.722 5.39216 111.623 6.24279 112.441 6.32147C113.258 6.40018 114.425 6.40018 114.697 6.38202C114.968 6.36084 116.952 6.29121 117.108 6.28213C117.272 6.27305 117.355 6.24279 117.376 6.29121C117.397 6.34872 117.245 6.47889 117.146 6.61815C117.048 6.75738 114.813 9.38795 114.386 9.89954C113.96 10.4111 112.518 11.9943 112.306 12.2334C112.092 12.4696 111.659 12.9387 111.698 13.5714C111.722 13.965 111.859 15.6934 111.975 16.2292C112.092 16.765 112.229 16.9618 112.966 17.0587C113.706 17.1586 115.825 17.2373 116.836 17.2373C117.848 17.2373 121.425 17.1586 122.106 16.9618C122.786 16.765 122.825 16.7045 123.039 16.4472C123.254 16.1899 123.875 14.8458 124.03 13.7985C124.129 13.1446 123.583 13.1446 123.135 13.1658C122.84 13.1779 117.651 13.2051 117.322 13.2051C116.994 13.2051 116.797 13.184 116.758 13.1264C116.72 13.0689 116.902 12.8147 117.03 12.633C117.224 12.3575 118.817 10.399 119.226 9.92374C119.56 9.53326 121.055 7.74422 121.267 7.45059C121.539 7.07523 121.93 6.52128 122.025 5.8099C122.123 5.09853 122.064 2.9614 122.064 2.62538C122.064 2.28936 122.064 1.75659 121.56 1.75659C121.055 1.75659 118.197 1.81713 116.914 1.89584C115.631 1.97454 112.948 2.15314 112.754 2.17131C112.56 2.1925 111.996 2.26212 111.904 2.87056C111.847 3.24594 111.722 4.66263 111.722 4.91993V4.91689Z" fill="black"/>
<path d="M6.84414 4.95639C5.57897 5.51037 4.08405 6.51839 4.14076 10.3144C4.21235 14.9096 8.01084 16.187 10.4397 16.9983C11.7496 17.4342 11.5676 18.085 11.49 18.3817C11.4124 18.6783 11.0693 19.6924 10.9977 19.8589C10.9261 20.0254 10.8425 21.0728 9.12978 20.8609C7.42302 20.652 0.267683 19.0052 0.00808708 10.4082C-0.25151 1.81426 5.8147 0.772926 7.26485 0.718438C8.718 0.666977 10.4158 0.75779 11.1439 1.5297C11.7914 2.21383 11.505 3.00089 11.3438 3.60327C11.2185 4.06946 10.9947 4.67184 10.8575 5.0563C10.7679 5.31361 10.7053 5.42258 10.571 5.43772C10.4367 5.45284 10.0309 5.01694 9.56245 4.83834C9.00744 4.62644 7.91236 4.4872 6.84114 4.95639H6.84414Z" fill="black"/>
<path d="M12.2566 3.30366C12.2566 3.30366 11.8926 7.61428 11.7912 9.43358C11.7136 10.8079 11.3675 14.8067 12.2984 16.4625C12.4416 16.7168 12.6983 16.9802 13.0981 17.1951C13.48 17.3979 14.0201 17.4373 14.5662 17.3586C15.9417 17.1588 16.8996 16.6321 17.186 16.4232C17.5232 16.1719 17.7052 15.8965 17.7828 15.3697C17.8872 14.6584 17.9708 13.8683 17.9171 13.5383C17.8604 13.2023 17.7052 12.6938 17.0845 12.6938C16.6907 12.6938 15.9716 12.9057 15.6971 12.9723C15.4643 13.0298 15.4703 12.9692 15.4524 12.939C15.4345 12.9087 15.4345 12.833 15.4464 12.6151C15.5568 10.3084 16.085 2.89198 16.0999 2.62257C16.1058 2.51056 16.1446 2.15336 15.8403 1.88395C15.4255 1.51464 14.3871 1.83249 13.9724 1.88395C13.5576 1.93541 12.3879 1.97779 12.2626 3.3067L12.2566 3.30366Z" fill="black"/>
<path d="M30.7029 17.3524C30.5478 16.6864 28.0592 4.35998 27.5401 2.88275C27.0207 1.40551 25.2575 1.62649 25.7707 1.61741C26.2837 1.60832 23.3925 1.51146 22.5092 1.70519C21.629 1.89893 21.1367 3.26719 20.9546 4.09661C20.7726 4.92604 18.0931 17.3524 18.0931 17.3524C17.8663 18.3967 17.8723 18.5965 18.3109 18.651C18.7526 18.7024 19.97 18.8478 20.6443 18.9143C21.3187 18.9809 21.4231 18.5965 21.5246 18.2817C21.6171 17.9971 21.9602 16.0688 22.1034 15.5512C22.1124 15.521 22.1482 15.4543 22.1691 15.4362C22.193 15.415 22.2198 15.3756 22.3481 15.3545C22.5689 15.3151 25.7438 14.6976 26.1763 14.7157C26.2213 14.7157 26.2571 14.7218 26.2837 14.7278C26.3167 14.7369 26.4031 14.8005 26.415 14.858C26.5583 15.5482 27.0299 17.867 27.1312 18.2393C27.1909 18.4573 27.355 18.5723 27.5132 18.5723C28.0711 18.5723 30.0495 18.4936 30.4642 18.4754C30.6971 18.4663 30.8551 18.0183 30.6999 17.3524H30.7029ZM25.1559 10.8592C25.0276 10.9318 23.9206 11.1892 23.4462 11.28C23.1 11.3465 23.1657 11.1044 23.2075 10.8925C23.2552 10.6352 24.0697 6.00673 24.0697 6.00673C24.1085 5.7706 24.3414 5.83417 24.38 5.91592C24.4189 5.9946 24.7561 7.41735 24.9352 8.20743C25.1409 9.1186 25.2902 10.0025 25.353 10.3325C25.4424 10.8077 25.2575 10.8047 25.1589 10.8592H25.1559Z" fill="black"/>
<path d="M28.7314 3.13072C28.9968 2.84617 29.8712 1.99555 30.7545 1.52332C31.0648 1.33866 31.3721 1.26299 31.8435 1.84116C32.3298 2.43449 34.3262 5.26181 35.4063 7.0811C35.4541 7.15981 35.4779 7.21731 35.5168 7.20823C35.5554 7.20219 35.5704 7.14164 35.5912 7.08716C35.9912 5.93382 36.7968 2.07728 36.8476 1.86538C36.9012 1.64743 36.8981 1.33866 37.4711 1.25996C38.0409 1.18125 39.5957 1.39315 39.9329 1.39315C40.27 1.39315 40.7624 1.59899 40.7355 2.10452C40.7086 2.63125 39.8283 7.53516 38.5065 12.3089C37.2204 16.9495 36.1225 20.3247 35.6809 21.1148C35.2392 21.9049 34.5916 21.8262 34.3082 21.8534C34.0217 21.8807 32.3628 21.4327 32.13 21.3267C31.8973 21.2208 31.59 20.8999 31.9212 19.9554C32.2851 18.9262 34.3829 12.6782 34.15 12.097C34.0934 11.9548 33.0102 10.2323 31.7899 8.5099C30.45 6.61493 28.9821 4.69574 28.8597 4.502C28.6271 4.1327 28.236 3.65743 28.7314 3.13072Z" fill="black"/>
<path d="M40.5495 7.53553C40.5495 7.53553 40.3674 17.6067 40.3674 17.7672C40.3674 17.9276 40.3408 18.4785 40.833 18.3484C41.3254 18.2152 43.2946 17.5583 43.5544 17.4524C43.814 17.3464 44.1362 17.192 44.1243 16.5563C44.1124 15.857 44.0974 12.1519 44.1243 12.0217C44.1512 11.8915 44.1751 11.943 44.3838 12.2336C44.5926 12.5242 47.675 16.2688 47.9883 16.5049C48.2987 16.741 48.6359 17.2707 49.2058 17.2162C49.7757 17.1617 51.3571 16.9256 51.6675 16.8742C51.9778 16.8227 52.339 16.8439 52.47 15.9237C52.6313 14.7885 52.9355 11.8431 53.061 10.1631C53.1834 8.483 53.4757 4.59317 53.255 4.1512C53.061 3.76372 52.8342 3.60935 52.2374 3.63659C51.6406 3.66383 50.5516 3.82125 50.3187 3.9272C50.0861 4.03315 49.5162 4.1633 49.4116 4.98062C49.3072 5.79795 49.152 9.17319 49.1134 10.8986C49.1134 10.8986 49.1134 11.162 49.0626 11.2014C49.0118 11.2407 48.9074 11.162 48.7761 10.9652C48.6448 10.7685 47.663 9.46984 46.7919 8.41944C45.9503 7.40535 44.6523 5.88876 44.342 5.73136C44.0766 5.59817 43.8378 5.5346 43.2799 5.79795C42.7219 6.06132 41.4267 6.64251 41.0509 6.87864C40.675 7.11474 40.5853 7.26006 40.5465 7.53855L40.5495 7.53553Z" fill="black"/>
<path d="M68.9469 6.58499C69.0482 8.54051 69.7258 9.74833 70.9938 11.6736C72.2649 13.5988 72.3157 14.3889 72.3157 15.1003C72.3157 16.3656 70.4478 18.0789 69.9315 18.6329C69.5764 19.0113 69.663 19.2353 69.9226 19.4987C70.1821 19.762 71.2117 20.5097 71.6681 20.7943C72.05 21.0304 72.2649 20.767 72.3931 20.6611C72.5216 20.5551 73.7777 19.532 74.4939 18.6057C75.2459 17.6309 76.2694 16.3959 76.1528 14.2799C76.0484 12.4092 75.4516 11.6161 74.467 10.1388C73.554 8.77057 72.9661 7.6475 73.0288 6.64554C73.1063 5.36809 73.8702 4.18147 75.1682 3.58815C76.1947 3.11894 76.9556 3.12802 77.3703 3.12802C77.5255 3.12802 77.6598 3.03419 77.6032 2.82531C77.4599 2.29859 77.1107 1.37532 76.8243 0.900061C76.502 0.361235 76.2005 0.215934 75.8008 0.161446C75.4666 0.116039 73.0407 0.0433883 71.4593 1.30872C70.042 2.44389 68.8394 4.57801 68.9438 6.58195L68.9469 6.58499Z" fill="black"/>
<path d="M87.113 15.5786C87.0921 15.3304 86.4504 9.15208 86.3938 8.67683C86.3341 8.20158 85.9254 5.11391 85.7134 4.00901C85.4747 2.76185 85.3703 2.12918 84.0484 2.18366C83.0757 2.22302 80.4858 2.51362 80.0173 2.58627C79.3816 2.68616 79.149 2.97375 79.0446 3.39753C78.9669 3.71538 76.6604 15.4727 76.556 16.0812C76.4636 16.626 76.5052 17.0317 76.9438 17.1104C77.1736 17.1528 79.0446 17.3465 79.2772 17.295C79.5101 17.2436 79.8113 17.3707 79.9517 16.847C80.1336 16.1629 80.6199 14.1317 80.6529 13.9198C80.6857 13.7018 80.7692 13.5807 80.8467 13.5505C80.9841 13.499 81.3719 13.3749 81.9151 13.3144C82.3685 13.2629 82.9713 13.2175 83.0877 13.2175C83.204 13.2175 83.398 13.2387 83.4277 13.5232C83.4546 13.7896 83.6695 16.2113 83.6903 16.4505C83.7114 16.6866 83.7889 16.9651 84.0395 16.9257C84.2902 16.8864 86.1103 16.6593 86.7727 16.4111C87.2204 16.2416 87.1338 15.8269 87.113 15.5817V15.5786ZM82.6999 9.40938C82.6102 9.43361 81.9479 9.53654 81.6703 9.55772C81.5212 9.56982 81.5332 9.47599 81.569 9.31251C81.5987 9.1763 82.13 6.21882 82.13 6.21882C82.2163 5.93729 82.4939 5.95545 82.5447 6.19155C82.5952 6.42768 82.8817 8.51337 82.9236 8.9977C82.9533 9.36096 82.9325 9.3428 82.6999 9.40636V9.40938Z" fill="black"/>
<path d="M87.9939 4.71437C87.8656 5.58316 87.606 7.79901 87.4748 10.0149C87.3612 11.9613 87.9672 13.154 88.5638 13.8896C89.1606 14.6282 89.9125 15.2881 91.9087 15.391C93.9051 15.497 95.5342 15.2881 96.6263 13.8896C97.5334 12.7302 97.6886 10.1178 97.6886 8.6678C97.6886 7.21781 97.7988 5.74058 97.7392 5.00197C97.6617 4.02723 97.3752 3.92127 96.8322 3.92127C96.289 3.92127 95.406 4.02723 94.9643 4.07869C94.5227 4.13016 94.3168 4.34204 94.2632 5.05341C94.2124 5.76478 94.2362 6.87271 94.2124 7.82323C94.1616 9.63343 93.9676 11.0532 92.7861 11.0138C92.0072 10.9866 91.6969 10.6173 91.5148 9.93313C91.321 9.19753 91.4254 7.92918 91.4642 7.19057C91.5148 6.18858 91.6461 4.79006 91.6461 4.36928C91.6461 3.94852 91.4909 3.57922 90.8674 3.60342C90.2437 3.63066 89.4412 3.65489 88.8713 3.78808C88.3012 3.92127 88.1043 3.93337 87.991 4.71136L87.9939 4.71437Z" fill="black"/>
<path d="M68.756 9.39721C68.5353 6.01593 66.3302 2.19268 60.7773 2.34706C55.293 2.50145 53.962 7.83826 54.0008 10.5384C54.0188 11.8401 54.4961 13.7563 55.6777 15.1941C56.8594 16.632 59.0018 17.5856 61.5859 17.519C63.8147 17.4796 65.999 16.3838 67.1418 14.8854C68.4965 13.1084 68.8515 10.8714 68.756 9.39721ZM61.4963 13.6745C59.1629 13.732 58.4467 12.1549 58.1932 10.6504C57.9426 9.15505 58.9064 6.66374 61.3441 6.58805C63.8505 6.50934 64.8054 8.10464 64.8501 9.86944C64.8978 11.6736 63.6925 13.6352 61.4935 13.6715L61.4963 13.6745Z" fill="black"/>
</g>
</g>
<defs>
<clipPath id="clip0_8633_26437">
<rect width="124.043" height="22" fill="white"/>
</clipPath>
</defs>
</svg>
