<svg width="104" height="28" viewBox="0 0 104 28" fill="none" xmlns="http://www.w3.org/2000/svg">
<rect width="27.9996" height="28" rx="13.9998" fill="black"/>
<path d="M20.5869 11.8516H19.2656V8.7832H12.3799L16.5088 13.5557L16.8818 13.9883L16.5088 14.4199L12.3809 19.1924H19.2656V16.124H20.5869V20.5137H10.6318L10.4336 20.2812L5.44043 14.416L5.07617 13.9883L5.44043 13.5596L10.4336 7.69531L10.6318 7.46289H20.5869V11.8516ZM6.81055 13.9873L10.9404 18.8389L15.1357 13.9873L10.9404 9.13574L6.81055 13.9873Z" fill="white"/>
<path d="M44.8948 7.1172V5.59839H33.7402V22.2117H44.8948V20.6927H35.4964V14.4746H44.183V12.9556H35.4964V7.1172H44.8948Z" fill="black"/>
<path d="M49.3211 21.4046C48.7751 20.867 48.5023 19.9807 48.5023 18.7466V11.8876H46.4136V10.3686H48.5023V6.78491H50.2109V10.3686H53.2964V11.8876H50.2109V18.7466C50.2109 19.4431 50.3494 19.9414 50.6265 20.2417C50.903 20.5425 51.3659 20.6927 52.0146 20.6927H53.2964V22.2116H52.0146C50.7647 22.2116 49.8668 21.9427 49.3211 21.4046Z" fill="black"/>
<path d="M55.7642 5.59839H57.473V12.0063C57.8368 11.4527 58.3037 11.0095 58.8733 10.6773C59.4429 10.345 60.0202 10.1789 60.6058 10.1789H62.2671C63.3588 10.1789 64.2407 10.5508 64.9133 11.2943C65.5857 12.0383 65.9219 13.0112 65.9219 14.2136V22.2117H64.2131V14.1661C64.2131 13.4385 64.0312 12.8451 63.6674 12.386C63.3033 11.9273 62.8207 11.6978 62.2195 11.6978H60.6531C59.9092 11.6978 59.2329 11.9867 58.6241 12.5641C58.0148 13.1417 57.631 13.8813 57.473 14.7832V22.2117H55.7642V5.59839Z" fill="black"/>
<path d="M69.5528 21.2268C68.7458 20.4436 68.3423 19.4035 68.3423 18.1058V14.712C68.3423 13.3514 68.7458 12.2556 69.5528 11.4249C70.3598 10.5943 71.4278 10.179 72.7568 10.179H74.7027C75.9684 10.179 76.9891 10.5824 77.7646 11.3893C78.5395 12.1963 78.9275 13.2643 78.9275 14.5933V16.6819H70.0511V18.1058C70.0511 18.9287 70.3003 19.5973 70.7987 20.1113C71.2971 20.6256 71.9498 20.8827 72.7568 20.8827H74.5605C75.3515 20.8827 75.9924 20.6653 76.4829 20.23C76.9731 19.795 77.2186 19.2135 77.2186 18.4857H78.8799C78.8799 19.6567 78.4843 20.602 77.6933 21.3217C76.9018 22.0419 75.8578 22.4017 74.5606 22.4017H72.7568C71.4278 22.4017 70.3598 22.01 69.5528 21.2268ZM77.2186 15.2104V14.5933C77.2186 13.7234 76.9891 13.0233 76.5304 12.4929C76.0712 11.963 75.4624 11.6979 74.7027 11.6979H72.7568C71.9498 11.6979 71.2971 11.9748 70.7987 12.5285C70.3003 13.0825 70.0512 13.8101 70.0512 14.712V15.2104H77.2186Z" fill="black"/>
<path d="M81.3486 10.3687H83.0099V12.1251C83.3737 11.5554 83.8484 11.089 84.4338 10.7248C85.0192 10.361 85.6046 10.179 86.1903 10.179H87.804C88.8959 10.179 89.7775 10.5509 90.4502 11.2944C91.1226 12.0383 91.4591 13.0113 91.4591 14.2136V22.2117H89.7502V14.1662C89.7502 13.4386 89.568 12.8452 89.2043 12.3861C88.8402 11.9274 88.3578 11.6979 87.7567 11.6979H86.2376C85.4937 11.6979 84.8173 11.9909 84.2086 12.576C83.5993 13.1615 83.2155 13.9132 83.0575 14.8307V22.2117H81.3486V10.3687Z" fill="black"/>
<path d="M94.6268 21.4998C93.9383 20.8986 93.5942 20.0916 93.5942 19.0789V18.3194C93.5942 17.3226 93.9504 16.5239 94.6622 15.9224C95.3743 15.3213 96.3154 15.0205 97.4867 15.0205H99.0055C99.5276 15.0205 100.065 15.0999 100.62 15.2578C101.173 15.4162 101.648 15.6298 102.043 15.8987V13.9288C102.043 13.2643 101.838 12.7224 101.426 12.303C101.015 11.884 100.469 11.6741 99.7889 11.6741H97.8899C97.2096 11.6741 96.6637 11.8325 96.2526 12.1488C95.8409 12.4655 95.6354 12.8845 95.6354 13.4066H93.9265C93.9265 12.4417 94.2903 11.6623 95.0184 11.0689C95.746 10.4756 96.7034 10.179 97.8899 10.179H99.7889C100.959 10.179 101.905 10.523 102.625 11.2113C103.345 11.8997 103.705 12.8055 103.705 13.9288V22.2117H102.091V20.5504C101.727 21.1199 101.248 21.5709 100.655 21.9033C100.062 22.2355 99.4482 22.4016 98.8157 22.4016H97.3915C96.2365 22.4016 95.3149 22.1012 94.6268 21.4998ZM98.863 20.9064C99.6067 20.9064 100.271 20.6772 100.857 20.2182C101.442 19.7594 101.838 19.1502 102.043 18.3906V17.5125C101.727 17.2121 101.288 16.9708 100.726 16.7886C100.164 16.607 99.5906 16.5158 99.0055 16.5158H97.4867C96.8377 16.5158 96.3117 16.6819 95.9082 17.0142C95.5047 17.3464 95.3031 17.7817 95.3031 18.3194V19.0789C95.3031 19.6329 95.4929 20.0757 95.8727 20.408C96.2526 20.7402 96.7586 20.9064 97.3915 20.9064L98.863 20.9064Z" fill="black"/>
</svg>
