<svg width="98" height="32" viewBox="0 0 98 32" fill="none" xmlns="http://www.w3.org/2000/svg">
<mask id="mask0_8633_26376" style="mask-type:luminance" maskUnits="userSpaceOnUse" x="0" y="0" width="25" height="25">
<path d="M0 0H24.2654V24.8386H0V0Z" fill="white"/>
</mask>
<g mask="url(#mask0_8633_26376)">
<path d="M24.0598 11.3144H12.672V14.6917H20.7489C20.3487 19.4189 16.4077 21.4481 12.6857 21.4481C12.5388 21.4487 12.3919 21.4458 12.245 21.4392C12.0983 21.4323 11.9516 21.4221 11.8055 21.4084C11.6591 21.3944 11.5133 21.3768 11.3679 21.3557C11.2226 21.3344 11.0778 21.3096 10.9335 21.2815C10.7895 21.253 10.646 21.2212 10.5035 21.1856C10.3608 21.1503 10.2192 21.1114 10.0786 21.0687C9.93795 21.0263 9.79841 20.9805 9.65991 20.931C9.52168 20.8815 9.3845 20.8288 9.24891 20.7725C9.11305 20.7164 8.97876 20.6569 8.84606 20.594C8.71336 20.5311 8.58198 20.465 8.4527 20.3955C8.32316 20.3262 8.19546 20.2535 8.0696 20.178C7.94348 20.1022 7.81973 20.0234 7.69757 19.9415C7.57566 19.8597 7.45586 19.7749 7.33817 19.6869C7.22021 19.5993 7.10489 19.5084 6.9914 19.4149C6.87819 19.3215 6.76734 19.2251 6.65886 19.1261C6.55038 19.0271 6.44454 18.9252 6.34106 18.821C6.23759 18.7167 6.13674 18.6098 6.0388 18.5005C5.94059 18.3913 5.84528 18.2796 5.7526 18.1656C5.66018 18.0516 5.57039 17.9352 5.48351 17.8167C5.39688 17.6983 5.31289 17.5777 5.23232 17.455C5.15149 17.3323 5.07355 17.2077 4.99904 17.0814C4.92453 16.9547 4.85291 16.8265 4.78472 16.6964C4.71653 16.5663 4.65149 16.4347 4.58988 16.3015C4.52827 16.168 4.46982 16.0334 4.41479 15.8973C4.35976 15.7609 4.30815 15.6235 4.25997 15.4847C4.21179 15.346 4.16703 15.2062 4.12595 15.0653C4.08461 14.9244 4.04696 14.7825 4.01273 14.6395C3.97851 14.4968 3.94796 14.3531 3.92084 14.2088C3.89399 14.0645 3.87029 13.9194 3.85054 13.7741C3.8308 13.6285 3.81447 13.4826 3.80183 13.3362C3.7892 13.1901 3.78024 13.0434 3.77498 12.8968C3.76971 12.7499 3.76813 12.6032 3.76997 12.4563C3.76997 7.34361 7.73021 3.40733 12.6965 3.40733C16.5277 3.40733 18.7852 5.84808 18.7852 5.84808L21.1502 3.3989C21.1502 3.3989 18.112 0.0200195 12.5728 0.0200195C5.51905 0.0200195 0.0625 5.96999 0.0625 12.3963C0.0625 18.6935 5.1952 24.8344 12.751 24.8344C19.3974 24.8344 24.2626 20.2836 24.2626 13.5545C24.2626 12.1345 24.0562 11.3144 24.0562 11.3144H24.0598Z" fill="black"/>
</g>
<path d="M33.3896 8.8681C28.7161 8.8681 25.3672 12.52 25.3672 16.7773C25.3672 21.099 28.6144 24.8181 33.4441 24.8181C37.8156 24.8181 41.3964 21.4789 41.3964 16.8699C41.3964 11.5972 37.2305 8.86731 33.3896 8.86731V8.8681ZM33.4351 12.0008C35.7326 12.0008 37.9101 13.8581 37.9101 16.8499C37.9101 19.7773 35.7416 21.688 33.4241 21.688C30.8772 21.688 28.8761 19.6498 28.8761 16.8262C28.8761 14.0627 30.859 12.0008 33.4422 12.0008H33.4351Z" fill="black"/>
<path d="M50.8351 8.86798C46.1616 8.86798 42.8125 12.5199 42.8125 16.7771C42.8125 21.0989 46.0597 24.8179 50.8896 24.8179C55.2609 24.8179 58.842 21.4788 58.842 16.8698C58.842 11.597 54.6761 8.86719 50.8351 8.86719V8.86798ZM50.8804 12.0007C53.1782 12.0007 55.3557 13.858 55.3557 16.8498C55.3557 19.7771 53.1872 21.6879 50.8696 21.6879C48.3228 21.6879 46.3217 19.6497 46.3217 16.8261C46.3217 14.0625 48.3046 12.0007 50.8878 12.0007H50.8804Z" fill="black"/>
<mask id="mask1_8633_26376" style="mask-type:luminance" maskUnits="userSpaceOnUse" x="60" y="8" width="16" height="24">
<path d="M60.2578 8.86377H75.6259V31.9999H60.2578V8.86377Z" fill="white"/>
</mask>
<g mask="url(#mask1_8633_26376)">
<path d="M67.9494 8.87695C63.6598 8.87695 60.2891 12.6313 60.2891 16.8459C60.2891 21.646 64.1974 24.8295 67.8749 24.8295C70.1487 24.8295 71.3586 23.9267 72.2409 22.8914V24.4641C72.2409 27.2158 70.5689 28.864 68.0458 28.864C65.6082 28.864 64.3857 27.0523 63.9528 26.0249L60.8857 27.2977C61.9736 29.5978 64.1637 31.9949 68.0713 31.9949C72.3462 31.9949 75.586 29.3106 75.586 23.6795V9.35589H72.2535V10.7069C71.2256 9.59786 69.8178 8.87695 67.9512 8.87695H67.9494ZM68.2588 12.0041C70.3615 12.0041 72.521 13.7988 72.521 16.8633C72.521 19.9786 70.3651 21.695 68.2122 21.695C65.9257 21.695 63.798 19.8403 63.798 16.8922C63.798 13.8303 66.0084 12.0031 68.2588 12.0031V12.0041Z" fill="black"/>
</g>
<path d="M90.4822 8.85791C86.4364 8.85791 83.0391 12.0762 83.0391 16.8216C83.0391 21.8453 86.8258 24.8242 90.8616 24.8242C94.2378 24.8242 96.3189 22.9788 97.5467 21.3242L94.7881 19.4898C94.0722 20.5988 92.8753 21.6852 90.8787 21.6852C88.6357 21.6852 87.6044 20.458 86.9648 19.2671L97.6641 14.8305L97.1183 13.5306C96.0851 10.9851 93.6739 8.85791 90.483 8.85791H90.4822ZM90.6215 11.9253C92.0793 11.9253 93.128 12.6997 93.5738 13.6288L86.4282 16.6133C86.1191 14.3024 88.311 11.9253 90.6123 11.9253H90.6215Z" fill="black"/>
<path d="M77.9297 24.352H81.4444V0.845703H77.9297V24.352Z" fill="black"/>
</svg>
