<svg width="21" height="27" viewBox="0 0 21 27" fill="none" xmlns="http://www.w3.org/2000/svg">
<g clip-path="url(#clip0_2129_138)">
<path fill-rule="evenodd" clip-rule="evenodd" d="M10.2092 0.136174C10.3595 -0.0453913 10.6405 -0.0453913 10.7908 0.136174L18.6601 9.64487L18.6855 9.67693C20.1335 11.4527 20.9999 13.7095 21 16.166C21 21.8875 16.2995 26.5261 10.5005 26.5263C4.70135 26.5263 0 21.8877 0 16.166C9.98188e-05 13.7095 0.866524 11.4527 2.3145 9.67693L2.33992 9.64594L10.2092 0.136174ZM4.2233 11.0318C3.11287 12.3936 2.44803 14.1251 2.44797 16.0089C2.44797 20.3967 6.05275 23.9542 10.4995 23.9544C11.7672 23.9544 12.9672 23.665 14.0342 23.1498L14.0681 23.1327L14.0734 23.0964C14.1451 22.4944 14.1149 21.8056 13.9495 21.1057C13.5529 19.4286 12.1763 17.8987 9.81201 16.5688C7.09215 15.0438 5.46577 13.0748 5.01034 10.7134C4.98611 10.5878 4.9647 10.4627 4.94784 10.3383L4.92666 10.1813L4.2233 11.0318ZM10.8988 3.92833C10.6929 3.67952 10.3071 3.67952 10.1012 3.92833L8.92752 5.34731C8.56846 5.78587 8.146 6.51449 7.86189 7.3839C7.57773 8.25354 7.43002 9.26877 7.62779 10.2796C7.93408 11.8429 9.10124 13.2186 11.1393 14.3613C14.1572 16.0581 15.9904 18.1544 16.5532 20.5982C16.583 20.7275 16.6087 20.8558 16.6305 20.9829L16.657 21.1325L16.7534 21.0149C17.878 19.6487 18.552 17.9061 18.552 16.0089C18.552 14.1397 17.8971 12.4208 16.8021 11.0639L16.8032 11.0628L10.8988 3.92833Z" fill="white"/>
</g>
<defs>
<clipPath id="clip0_2129_138">
<rect width="21" height="27" fill="white"/>
</clipPath>
</defs>
</svg>
