<svg width="32" height="13" viewBox="0 0 32 13" fill="none" xmlns="http://www.w3.org/2000/svg">
<path fill-rule="evenodd" clip-rule="evenodd" d="M10.7439 3.99571C10.6841 3.99571 10.6355 4.04428 10.6355 4.10411V10.5512C10.6355 11.6546 9.74121 12.5491 8.63805 12.5491C7.5349 12.5491 6.64062 11.6546 6.64062 10.5512V4.10411C6.64062 1.83751 8.47777 0 10.7439 0C13.01 0 14.8471 1.83751 14.8471 4.10411V8.44502C14.8471 8.50484 14.8957 8.55338 14.9555 8.55338C15.0154 8.55338 15.0639 8.50484 15.0639 8.44502V1.99786C15.0639 0.894469 15.9582 0 17.0613 0C18.1645 0 19.0588 0.894469 19.0588 1.99786V8.44502C19.0588 10.7116 17.2216 12.5491 14.9555 12.5491C12.6894 12.5491 10.8523 10.7116 10.8523 8.44502V4.10411C10.8523 4.04428 10.8037 3.99571 10.7439 3.99571Z" fill="black"/>
<path fill-rule="evenodd" clip-rule="evenodd" d="M23.3317 4.05431C23.2719 4.05431 23.2234 4.10288 23.2234 4.1627C23.2234 4.22253 23.2719 4.2711 23.3317 4.2711H27.6717C29.9379 4.2711 31.775 6.10863 31.775 8.3752C31.775 10.6418 29.9379 12.4793 27.6717 12.4793H21.2259C20.1228 12.4793 19.2285 11.5849 19.2285 10.4815C19.2285 9.37806 20.1228 8.48362 21.2259 8.48362H27.6717C27.7315 8.48362 27.7801 8.43503 27.7801 8.3752C27.7801 8.31538 27.7315 8.26679 27.6717 8.26679H23.3317C21.0656 8.26679 19.2285 6.42933 19.2285 4.1627C19.2285 1.89611 21.0656 0.0585938 23.3317 0.0585938H29.7775C30.8807 0.0585938 31.775 0.953067 31.775 2.05645C31.775 3.15984 30.8807 4.05431 29.7775 4.05431H23.3317Z" fill="black"/>
<path d="M2.34277 9.01074C2.3451 9.02838 2.34821 9.04659 2.35156 9.06445C2.41474 9.39981 2.64026 9.67994 3.01758 9.89648C3.34535 10.0852 3.53678 10.3019 3.5918 10.54C3.61475 10.6394 3.61832 10.7377 3.6084 10.8232V10.8281L3.60352 10.8301C3.45562 10.9032 3.28901 10.9443 3.11328 10.9443C2.49637 10.9443 1.99609 10.4396 1.99609 9.81641C1.99612 9.54894 2.08814 9.30273 2.24219 9.10938L2.33984 8.98926L2.34277 9.01074Z" fill="black"/>
<path d="M3.05762 8.10059C3.08615 8.06559 3.13938 8.06567 3.16797 8.10059L3.9873 9.11426C4.13906 9.30693 4.22947 9.55107 4.22949 9.81641C4.22949 10.0818 4.13648 10.3333 3.98047 10.5273L3.9668 10.5439L3.96387 10.5225C3.96086 10.5045 3.95721 10.486 3.95312 10.4678C3.87498 10.1208 3.61973 9.82387 3.20117 9.58301C2.91856 9.42077 2.75737 9.22484 2.71484 9.00293C2.68739 8.85941 2.70767 8.71529 2.74707 8.5918C2.78643 8.46852 2.84477 8.36501 2.89453 8.30273L3.05762 8.10059Z" fill="black"/>
<path fill-rule="evenodd" clip-rule="evenodd" d="M3.11426 6.28516C4.83413 6.2852 6.22852 7.67953 6.22852 9.39941C6.22847 11.1192 4.8341 12.5136 3.11426 12.5137C1.39438 12.5137 4.74172e-05 11.1192 0 9.39941C0 7.6795 1.39435 6.28516 3.11426 6.28516ZM3.15332 7.5625C3.13246 7.5367 3.09312 7.5367 3.07227 7.5625L1.98047 8.91309L1.97754 8.91699C1.7767 9.16916 1.65625 9.48996 1.65625 9.83887C1.65625 10.6513 2.3088 11.3105 3.11328 11.3105C3.91759 11.3103 4.56934 10.6512 4.56934 9.83887C4.56934 9.48996 4.44894 9.16921 4.24805 8.91699L4.24512 8.91309L3.15332 7.5625Z" fill="black"/>
</svg>
